<?xml version="1.0" standalone="no"?>
<!DOCTYPE svg PUBLIC "-//W3C//DTD SVG 20010904//EN"
 "http://www.w3.org/TR/2001/REC-SVG-20010904/DTD/svg10.dtd">
<svg version="1.0" xmlns="http://www.w3.org/2000/svg"
 width="836.000000pt" height="836.000000pt" viewBox="0 0 836.000000 836.000000"
 preserveAspectRatio="xMidYMid meet">
<metadata>
Created by potrace 1.14, written by Peter Selinger 2001-2017
</metadata>
<g transform="translate(0.000000,836.000000) scale(0.100000,-0.100000)"
fill="#000000" stroke="none">
<path d="M0 4180 l0 -4180 4180 0 4180 0 0 4180 0 4180 -4180 0 -4180 0 0
-4180z m2240 3180 c658 -24 955 -109 1241 -353 152 -131 269 -298 329 -472 56
-163 73 -367 46 -536 -82 -496 -419 -827 -996 -982 -66 -18 -120 -36 -120 -40
0 -6 428 -605 903 -1262 307 -424 485 -608 685 -709 65 -33 72 -34 80 -18 5 9
55 123 110 252 55 129 206 483 335 785 570 1334 717 1677 761 1783 l48 112 63
0 62 0 151 -362 c83 -200 182 -437 220 -528 38 -91 134 -318 212 -505 78 -187
183 -437 232 -555 245 -583 322 -770 343 -820 12 -30 53 -127 90 -215 92 -220
175 -417 295 -705 262 -629 378 -794 616 -879 48 -17 211 -51 245 -51 5 0 9
-29 9 -65 l0 -65 -920 0 -920 0 0 64 0 65 58 6 c170 19 274 51 334 104 127
111 105 274 -102 761 -117 277 -209 496 -219 523 l-11 27 -897 -2 -897 -3
-143 -330 c-242 -559 -283 -673 -283 -784 0 -107 75 -201 193 -241 51 -17 288
-60 335 -60 8 0 12 -20 12 -65 l0 -65 -735 0 -735 0 0 65 c0 62 1 65 28 71
232 54 299 83 375 163 104 108 226 324 360 636 157 365 257 602 257 608 0 4
-150 7 -332 7 l-333 0 -175 242 c-96 133 -205 282 -241 332 -36 50 -257 354
-489 676 -233 322 -477 660 -544 752 l-121 167 -242 1 -243 0 0 -717 c0 -407
5 -770 11 -838 22 -257 67 -348 211 -421 75 -38 166 -54 316 -54 l133 0 -3
-67 -3 -68 -992 -3 -993 -2 0 70 0 70 123 0 c68 0 150 5 182 11 136 25 253
107 300 212 51 112 50 67 50 1962 0 1684 -1 1774 -19 1861 -29 144 -79 213
-197 274 -63 33 -152 49 -297 56 l-142 7 0 64 0 63 873 0 c479 -1 982 -5 1117
-10z"/>
<path d="M1875 7085 c-55 -7 -146 -21 -202 -31 l-103 -17 0 -958 c0 -896 1
-957 17 -963 10 -4 110 -5 223 -2 280 8 461 39 644 110 319 125 528 353 613
666 25 94 25 385 0 489 -44 180 -122 323 -244 445 -135 135 -279 212 -483 256
-84 19 -349 21 -465 5z"/>
<path d="M5513 4783 c-12 -27 -134 -311 -273 -633 -213 -493 -479 -1112 -497
-1157 -4 -10 157 -13 785 -13 l791 0 -38 93 c-21 50 -80 191 -131 312 -51 121
-109 261 -130 310 -21 50 -67 161 -104 247 -36 87 -95 227 -130 310 -35 84
-96 230 -136 323 -39 94 -79 189 -88 213 -9 23 -19 42 -23 42 -3 0 -15 -21
-26 -47z"/>
</g>
</svg>
