<svg width="631" height="665" viewBox="0 0 631 665" fill="none" xmlns="http://www.w3.org/2000/svg">
<line x1="25" y1="468" x2="126" y2="468" stroke="white" stroke-width="6"/>
<line x1="62" y1="335" x2="120" y2="335" stroke="white" stroke-width="6"/>
<rect x="120.5" y="142.5" width="383" height="383" rx="18.5" fill="url(#paint0_linear_15_2)" fill-opacity="0.44" stroke="white" stroke-width="17"/>
<rect x="163.5" y="185.5" width="298" height="298" rx="18.5" fill="url(#paint1_linear_15_2)" fill-opacity="0.92" stroke="black" stroke-width="17"/>
<mask id="path-5-inside-1_15_2" fill="white">
<path fill-rule="evenodd" clip-rule="evenodd" d="M306.756 257.296V426.159H306.754C306.755 426.276 306.756 426.392 306.756 426.509C306.756 444.852 291.886 459.722 273.542 459.722C264.185 459.722 255.732 455.853 249.695 449.627C244.787 452.489 239.078 454.129 232.987 454.129C214.644 454.129 199.774 439.258 199.774 420.915C199.774 415.872 200.898 411.091 202.909 406.81C186.936 398.654 176 382.044 176 362.879C176 348.535 182.126 335.622 191.905 326.614C188.88 320.225 187.188 313.081 187.188 305.542C187.188 288.609 195.726 273.67 208.731 264.795C208.358 262.35 208.165 259.845 208.165 257.296C208.165 230.07 230.235 208 257.46 208C284.569 208 306.567 229.882 306.755 256.946H306.756V257.296Z"/>
</mask>
<path fill-rule="evenodd" clip-rule="evenodd" d="M306.756 257.296V426.159H306.754C306.755 426.276 306.756 426.392 306.756 426.509C306.756 444.852 291.886 459.722 273.542 459.722C264.185 459.722 255.732 455.853 249.695 449.627C244.787 452.489 239.078 454.129 232.987 454.129C214.644 454.129 199.774 439.258 199.774 420.915C199.774 415.872 200.898 411.091 202.909 406.81C186.936 398.654 176 382.044 176 362.879C176 348.535 182.126 335.622 191.905 326.614C188.88 320.225 187.188 313.081 187.188 305.542C187.188 288.609 195.726 273.67 208.731 264.795C208.358 262.35 208.165 259.845 208.165 257.296C208.165 230.07 230.235 208 257.46 208C284.569 208 306.567 229.882 306.755 256.946H306.756V257.296Z" fill="#D9D9D9"/>
<path d="M306.756 426.159V433.159H313.756V426.159H306.756ZM306.754 426.159V419.159H299.681L299.754 426.232L306.754 426.159ZM249.695 449.627L254.72 444.754L250.904 440.818L246.168 443.58L249.695 449.627ZM202.909 406.81L209.245 409.786L212.125 403.656L206.092 400.576L202.909 406.81ZM191.905 326.614L196.648 331.762L200.436 328.273L198.232 323.618L191.905 326.614ZM208.731 264.795L212.677 270.577L216.316 268.094L215.651 263.739L208.731 264.795ZM306.755 256.946L299.755 256.995L299.803 263.946H306.755V256.946ZM306.756 256.946H313.756V249.946H306.756V256.946ZM299.756 257.296V426.159H313.756V257.296H299.756ZM306.756 419.159H306.754V433.159H306.756V419.159ZM299.754 426.232C299.755 426.324 299.756 426.416 299.756 426.509H313.756C313.756 426.369 313.755 426.228 313.754 426.087L299.754 426.232ZM299.756 426.509C299.756 440.986 288.02 452.722 273.542 452.722V466.722C295.752 466.722 313.756 448.718 313.756 426.509H299.756ZM273.542 452.722C266.156 452.722 259.493 449.676 254.72 444.754L244.669 454.499C251.97 462.029 262.214 466.722 273.542 466.722V452.722ZM246.168 443.58C242.302 445.835 237.806 447.129 232.987 447.129V461.129C240.351 461.129 247.272 459.143 253.221 455.673L246.168 443.58ZM232.987 447.129C218.51 447.129 206.774 435.392 206.774 420.915H192.774C192.774 443.124 210.778 461.129 232.987 461.129V447.129ZM206.774 420.915C206.774 416.922 207.662 413.156 209.245 409.786L196.573 403.834C194.134 409.027 192.774 414.822 192.774 420.915H206.774ZM206.092 400.576C192.371 393.569 183 379.313 183 362.879H169C169 384.775 181.502 403.74 199.726 413.044L206.092 400.576ZM183 362.879C183 350.572 188.247 339.501 196.648 331.762L187.163 321.465C176.005 331.743 169 346.498 169 362.879H183ZM198.232 323.618C195.641 318.146 194.188 312.023 194.188 305.542H180.188C180.188 314.139 182.119 322.304 185.579 329.61L198.232 323.618ZM194.188 305.542C194.188 291.02 201.501 278.204 212.677 270.577L204.786 259.013C189.951 269.136 180.188 286.198 180.188 305.542H194.188ZM215.651 263.739C215.331 261.642 215.165 259.49 215.165 257.296H201.165C201.165 260.2 201.385 263.057 201.811 265.851L215.651 263.739ZM215.165 257.296C215.165 233.936 234.101 215 257.46 215V201C226.369 201 201.165 226.204 201.165 257.296H215.165ZM257.46 215C280.719 215 299.593 233.775 299.755 256.995L313.754 256.897C313.54 225.989 288.418 201 257.46 201V215ZM306.755 263.946H306.756V249.946H306.755V263.946ZM299.756 256.946V257.296H313.756V256.946H299.756Z" fill="black" mask="url(#path-5-inside-1_15_2)"/>
<path d="M282.5 304.5C282.5 329.319 262.163 349.5 237 349.5C211.837 349.5 191.5 329.319 191.5 304.5C191.5 279.681 211.837 259.5 237 259.5C262.163 259.5 282.5 279.681 282.5 304.5Z" fill="#D9D9D9" stroke="black" stroke-width="7"/>
<circle cx="233" cy="421" r="29.5" fill="#D9D9D9" stroke="black" stroke-width="7"/>
<rect x="245.71" y="255.548" width="56.5238" height="105.516" transform="rotate(19 245.71 255.548)" fill="#D9D9D9"/>
<rect x="299.929" y="407.178" width="45.8673" height="79.2143" transform="rotate(137 299.929 407.178)" fill="#D9D9D9"/>
<path d="M235 363C235 390.733 286 391.266 286 363" stroke="black" stroke-width="6"/>
<path d="M225.367 297.211C220.258 323.497 282.62 336.144 287.828 309.352" stroke="black" stroke-width="6"/>
<mask id="path-13-inside-2_15_2" fill="white">
<path fill-rule="evenodd" clip-rule="evenodd" d="M317.244 257.296V426.159H317.246C317.245 426.276 317.244 426.392 317.244 426.509C317.244 444.852 332.114 459.722 350.458 459.722C359.815 459.722 368.268 455.853 374.305 449.627C379.213 452.489 384.922 454.129 391.013 454.129C409.356 454.129 424.226 439.258 424.226 420.915C424.226 415.872 423.102 411.091 421.091 406.81C437.064 398.654 448 382.044 448 362.879C448 348.535 441.874 335.622 432.095 326.614C435.12 320.225 436.812 313.081 436.812 305.542C436.812 288.609 428.274 273.67 415.269 264.795C415.642 262.35 415.835 259.845 415.835 257.296C415.835 230.07 393.765 208 366.54 208C339.431 208 317.433 229.882 317.245 256.946H317.244V257.296Z"/>
</mask>
<path fill-rule="evenodd" clip-rule="evenodd" d="M317.244 257.296V426.159H317.246C317.245 426.276 317.244 426.392 317.244 426.509C317.244 444.852 332.114 459.722 350.458 459.722C359.815 459.722 368.268 455.853 374.305 449.627C379.213 452.489 384.922 454.129 391.013 454.129C409.356 454.129 424.226 439.258 424.226 420.915C424.226 415.872 423.102 411.091 421.091 406.81C437.064 398.654 448 382.044 448 362.879C448 348.535 441.874 335.622 432.095 326.614C435.12 320.225 436.812 313.081 436.812 305.542C436.812 288.609 428.274 273.67 415.269 264.795C415.642 262.35 415.835 259.845 415.835 257.296C415.835 230.07 393.765 208 366.54 208C339.431 208 317.433 229.882 317.245 256.946H317.244V257.296Z" fill="#D9D9D9"/>
<path d="M317.244 426.159V433.159H310.244V426.159H317.244ZM317.246 426.159V419.159H324.319L324.246 426.232L317.246 426.159ZM374.305 449.627L369.28 444.754L373.096 440.818L377.832 443.58L374.305 449.627ZM421.091 406.81L414.755 409.786L411.875 403.656L417.908 400.576L421.091 406.81ZM432.095 326.614L427.352 331.762L423.564 328.273L425.768 323.618L432.095 326.614ZM415.269 264.795L411.323 270.577L407.684 268.094L408.349 263.739L415.269 264.795ZM317.245 256.946L324.245 256.995L324.197 263.946H317.245V256.946ZM317.244 256.946H310.244V249.946H317.244V256.946ZM324.244 257.296V426.159H310.244V257.296H324.244ZM317.244 419.159H317.246V433.159H317.244V419.159ZM324.246 426.232C324.245 426.324 324.244 426.416 324.244 426.509H310.244C310.244 426.369 310.245 426.228 310.246 426.087L324.246 426.232ZM324.244 426.509C324.244 440.986 335.98 452.722 350.458 452.722V466.722C328.248 466.722 310.244 448.718 310.244 426.509H324.244ZM350.458 452.722C357.844 452.722 364.507 449.676 369.28 444.754L379.331 454.499C372.03 462.029 361.786 466.722 350.458 466.722V452.722ZM377.832 443.58C381.698 445.835 386.194 447.129 391.013 447.129V461.129C383.649 461.129 376.728 459.143 370.779 455.673L377.832 443.58ZM391.013 447.129C405.49 447.129 417.226 435.392 417.226 420.915H431.226C431.226 443.124 413.222 461.129 391.013 461.129V447.129ZM417.226 420.915C417.226 416.922 416.338 413.156 414.755 409.786L427.427 403.834C429.866 409.027 431.226 414.822 431.226 420.915H417.226ZM417.908 400.576C431.629 393.569 441 379.313 441 362.879H455C455 384.775 442.498 403.74 424.274 413.044L417.908 400.576ZM441 362.879C441 350.572 435.753 339.501 427.352 331.762L436.837 321.465C447.995 331.743 455 346.498 455 362.879H441ZM425.768 323.618C428.359 318.146 429.812 312.023 429.812 305.542H443.812C443.812 314.139 441.881 322.304 438.421 329.61L425.768 323.618ZM429.812 305.542C429.812 291.02 422.499 278.204 411.323 270.577L419.214 259.013C434.049 269.136 443.812 286.198 443.812 305.542H429.812ZM408.349 263.739C408.669 261.642 408.835 259.49 408.835 257.296H422.835C422.835 260.2 422.615 263.057 422.189 265.851L408.349 263.739ZM408.835 257.296C408.835 233.936 389.899 215 366.54 215V201C397.631 201 422.835 226.204 422.835 257.296H408.835ZM366.54 215C343.281 215 324.407 233.775 324.245 256.995L310.246 256.897C310.46 225.989 335.582 201 366.54 201V215ZM317.245 263.946H317.244V249.946H317.245V263.946ZM324.244 256.946V257.296H310.244V256.946H324.244Z" fill="black" mask="url(#path-13-inside-2_15_2)"/>
<path d="M341.5 304.5C341.5 329.319 361.837 349.5 387 349.5C412.163 349.5 432.5 329.319 432.5 304.5C432.5 279.681 412.163 259.5 387 259.5C361.837 259.5 341.5 279.681 341.5 304.5Z" fill="#D9D9D9" stroke="black" stroke-width="7"/>
<circle cx="33" cy="33" r="29.5" transform="matrix(-1 0 0 1 424 388)" fill="#D9D9D9" stroke="black" stroke-width="7"/>
<rect width="56.5238" height="105.516" transform="matrix(-0.945519 0.325568 0.325568 0.945519 378.29 255.548)" fill="#D9D9D9"/>
<rect width="45.8673" height="79.2143" transform="matrix(0.731354 0.681998 0.681998 -0.731354 324.071 407.178)" fill="#D9D9D9"/>
<path d="M389 363C389 390.733 338 391.266 338 363" stroke="black" stroke-width="6"/>
<path d="M398.633 297.211C403.742 323.497 341.38 336.144 336.172 309.352" stroke="black" stroke-width="6"/>
<circle cx="34" cy="202" r="23" stroke="black" stroke-width="4"/>
<circle cx="212" cy="25" r="23" stroke="white" stroke-width="4"/>
<circle cx="311" cy="89" r="23" stroke="white" stroke-width="4"/>
<circle cx="461" cy="31" r="23" stroke="white" stroke-width="4"/>
<line x1="388" y1="134" x2="388" y2="31" stroke="white" stroke-width="6"/>
<line x1="461" y1="34" x2="391" y2="34" stroke="white" stroke-width="6"/>
<line x1="311" y1="141" x2="311" y2="89" stroke="white" stroke-width="6"/>
<line x1="112" y1="203" x2="34" y2="203" stroke="white" stroke-width="6"/>
<line x1="212" y1="140" x2="212" y2="25" stroke="white" stroke-width="6"/>
<circle cx="34" cy="202" r="23" fill="white" stroke="white" stroke-width="4"/>
<circle cx="62" cy="334" r="23" fill="white" stroke="white" stroke-width="4"/>
<circle cx="25" cy="467" r="23" fill="white" stroke="white" stroke-width="4"/>
<line x1="606" y1="200" x2="505" y2="200" stroke="white" stroke-width="6"/>
<line x1="569" y1="333" x2="511" y2="333" stroke="white" stroke-width="6"/>
<circle cx="569" cy="334" r="23" transform="rotate(180 569 334)" fill="white" stroke="white" stroke-width="4"/>
<circle cx="606" cy="201" r="23" transform="rotate(180 606 201)" fill="white" stroke="white" stroke-width="4"/>
<circle cx="212" cy="25" r="23" fill="white" stroke="white" stroke-width="4"/>
<circle cx="311" cy="89" r="23" fill="white" stroke="white" stroke-width="4"/>
<circle cx="461" cy="31" r="23" fill="white" stroke="white" stroke-width="4"/>
<circle cx="588" cy="463" r="23" transform="rotate(-180 588 463)" stroke="white" stroke-width="4"/>
<circle cx="410" cy="640" r="23" transform="rotate(-180 410 640)" stroke="white" stroke-width="4"/>
<circle cx="311" cy="576" r="23" transform="rotate(-180 311 576)" stroke="white" stroke-width="4"/>
<circle cx="161" cy="634" r="23" transform="rotate(-180 161 634)" stroke="white" stroke-width="4"/>
<line x1="234" y1="531" x2="234" y2="634" stroke="white" stroke-width="6"/>
<line x1="161" y1="631" x2="231" y2="631" stroke="white" stroke-width="6"/>
<line x1="311" y1="524" x2="311" y2="576" stroke="white" stroke-width="6"/>
<line x1="510" y1="462" x2="588" y2="462" stroke="white" stroke-width="6"/>
<line x1="410" y1="525" x2="410" y2="640" stroke="white" stroke-width="6"/>
<circle cx="588" cy="463" r="23" transform="rotate(-180 588 463)" fill="white" stroke="white" stroke-width="4"/>
<circle cx="410" cy="640" r="23" transform="rotate(-180 410 640)" fill="white" stroke="white" stroke-width="4"/>
<circle cx="311" cy="576" r="23" transform="rotate(-180 311 576)" fill="white" stroke="white" stroke-width="4"/>
<circle cx="161" cy="634" r="23" transform="rotate(-180 161 634)" fill="white" stroke="white" stroke-width="4"/>
<defs>
<linearGradient id="paint0_linear_15_2" x1="312" y1="134" x2="312" y2="534" gradientUnits="userSpaceOnUse">
<stop offset="0.328339" stop-color="#737373"/>
<stop offset="1" stop-color="#D9D9D9"/>
</linearGradient>
<linearGradient id="paint1_linear_15_2" x1="312.5" y1="177" x2="312.5" y2="492" gradientUnits="userSpaceOnUse">
<stop stop-color="#D9D9D9"/>
<stop offset="1" stop-color="#4A98BF"/>
</linearGradient>
</defs>
</svg>
