<svg width="598" height="535" viewBox="0 0 598 535" fill="none" xmlns="http://www.w3.org/2000/svg">
<circle cx="298" cy="285" r="160" fill="#94BBD9" stroke="black" stroke-width="10"/>
<path d="M396 285C396 329.782 384.714 370.086 366.731 399.034C348.702 428.057 324.444 445 298.5 445C272.556 445 248.298 428.057 230.269 399.034C212.286 370.086 201 329.782 201 285C201 240.218 212.286 199.914 230.269 170.966C248.298 141.943 272.556 125 298.5 125C324.444 125 348.702 141.943 366.731 170.966C384.714 199.914 396 240.218 396 285Z" fill="url(#paint0_linear_15_2)" stroke="black" stroke-width="10"/>
<line x1="297.5" y1="450" x2="297.5" y2="120" stroke="black" stroke-width="11"/>
<line x1="142" y1="289" x2="458" y2="289" stroke="black" stroke-width="10"/>
<path d="M189.5 400C254.444 348.844 346.467 346.828 407 400" stroke="black" stroke-width="10"/>
<path d="M189 171.706C253.944 222.863 345.967 224.878 406.5 171.706" stroke="black" stroke-width="10"/>
<rect x="444.5" y="405.5" width="149" height="47" fill="#BBB3B3" stroke="white" stroke-width="9"/>
<rect x="444.5" y="456.5" width="149" height="47" fill="#BBB3B3" stroke="white" stroke-width="9"/>
<rect x="463" y="425" width="25" height="9" fill="#140909"/>
<rect x="463" y="476" width="25" height="9" fill="#140909"/>
<rect x="503" y="425" width="77" height="9" fill="#140909"/>
<rect x="503" y="476" width="77" height="9" fill="#140909"/>
<path d="M405.68 83.9037C446.102 70.6619 487.416 107.861 477.488 148.56" stroke="white" stroke-width="12"/>
<path d="M395.5 48.8662C467.202 23.4447 537.965 87.16 518.493 159.609" stroke="white" stroke-width="12"/>
<path d="M393.644 13.4516C486.939 -19.5228 579.145 63.5003 553.908 157.754" stroke="white" stroke-width="12"/>
<rect x="9.85864" y="393" width="154.454" height="113.376" rx="8" fill="#D9D9D9"/>
<rect x="13.145" y="396.286" width="147.881" height="93.6581" rx="8" fill="black" fill-opacity="0.22"/>
<path d="M9.85829 493.231H164.312L174.006 524.45H0.328613L9.85829 493.231Z" fill="#C0C0C0"/>
<rect y="517.877" width="174.171" height="16.4312" rx="6" fill="#D9D9D9"/>
<path fill-rule="evenodd" clip-rule="evenodd" d="M84.0401 175.169C77.1197 173.471 70.4648 171.064 64.151 168.026C48.0307 201.46 39 238.93 39 278.5C39 311.498 45.2798 343.034 56.7139 371.989C62.4775 367.881 68.658 364.355 75.1763 361.492C65.3676 335.688 60 307.715 60 278.5C60 241.425 68.6446 206.349 84.0401 175.169ZM212.673 58.9116C238.434 49.273 266.345 44 295.5 44C315.149 44 334.232 46.395 352.474 50.9072C354.131 43.9829 356.396 37.3067 359.207 30.9426C338.837 25.7569 317.492 23 295.5 23C265.019 23 235.779 28.2962 208.658 38.0151C210.631 44.728 211.992 51.7167 212.673 58.9116ZM205.648 517.885C209.196 511.88 212.196 505.49 214.575 498.791C239.806 507.983 267.061 513 295.5 513C326.843 513 356.748 506.906 384.091 495.845C386.274 502.591 389.08 509.041 392.44 515.123C362.532 527.293 329.802 534 295.5 534C263.888 534 233.611 528.303 205.648 517.885ZM536.026 367.455C546.356 339.754 552 309.783 552 278.5C552 239.573 543.26 202.679 527.629 169.659C522.087 174.061 516.131 177.933 509.833 181.204C523.427 210.847 531 243.798 531 278.5C531 306.598 526.035 333.548 516.929 358.524C523.622 360.848 530.013 363.851 536.026 367.455Z" fill="white"/>
<circle cx="422.5" cy="132.5" r="16" fill="white" stroke="white"/>
<mask id="path-22-inside-1_15_2" fill="white">
<path fill-rule="evenodd" clip-rule="evenodd" d="M164.49 137L170.97 137V136.691C196.92 134.231 217 117.405 217 97.0146C217 74.9312 193.447 57.0291 164.394 57.0291C161.901 57.0291 159.449 57.1609 157.048 57.4158C149.812 31.7387 127.135 13 100.28 13C76.9729 13 56.8123 27.115 47.1623 47.6305C45.1835 47.3106 43.1587 47.1449 41.0985 47.1449C18.4004 47.1449 0 67.2597 0 92.0725C0 116.885 18.4004 137 41.0985 137L100.28 137L164.298 137C164.33 137 164.362 137 164.394 137C164.426 137 164.458 137 164.49 137Z"/>
</mask>
<path fill-rule="evenodd" clip-rule="evenodd" d="M164.49 137L170.97 137V136.691C196.92 134.231 217 117.405 217 97.0146C217 74.9312 193.447 57.0291 164.394 57.0291C161.901 57.0291 159.449 57.1609 157.048 57.4158C149.812 31.7387 127.135 13 100.28 13C76.9729 13 56.8123 27.115 47.1623 47.6305C45.1835 47.3106 43.1587 47.1449 41.0985 47.1449C18.4004 47.1449 0 67.2597 0 92.0725C0 116.885 18.4004 137 41.0985 137L100.28 137L164.298 137C164.33 137 164.362 137 164.394 137C164.426 137 164.458 137 164.49 137Z" fill="url(#paint1_linear_15_2)"/>
<path d="M164.49 137L164.49 127L164.483 127L164.476 127L164.49 137ZM170.97 137L170.97 147L180.97 147V137H170.97ZM170.97 136.691L170.026 126.735L160.97 127.594V136.691H170.97ZM157.048 57.4158L147.423 60.1281L149.712 68.2511L158.104 67.3599L157.048 57.4158ZM47.1623 47.6305L45.5665 57.5024L53.0043 58.7048L56.2113 51.8869L47.1623 47.6305ZM41.0985 137L41.0985 147L41.0985 147L41.0985 137ZM100.28 137L100.28 127L100.28 127L100.28 137ZM164.298 137L164.312 127L164.305 127L164.298 127L164.298 137ZM164.49 147L170.97 147L170.97 127L164.49 127L164.49 147ZM180.97 137V136.691H160.97V137H180.97ZM207 97.0146C207 110.148 193.242 124.535 170.026 126.735L171.913 146.646C200.597 143.927 227 124.662 227 97.0146H207ZM164.394 67.0291C176.935 67.0291 187.914 70.9045 195.541 76.7018C203.16 82.4935 207 89.7688 207 97.0146H227C227 82.177 219.063 69.4595 207.643 60.7793C196.231 52.1047 180.907 47.0291 164.394 47.0291V67.0291ZM158.104 67.3599C160.154 67.1423 162.253 67.0291 164.394 67.0291V47.0291C161.549 47.0291 158.744 47.1795 155.992 47.4717L158.104 67.3599ZM166.673 54.7035C158.332 25.1016 132.002 3 100.28 3V23C122.269 23 141.293 38.3758 147.423 60.1281L166.673 54.7035ZM100.28 3C72.7659 3 49.2659 19.6642 38.1134 43.3742L56.2113 51.8869C64.3587 34.5658 81.1798 23 100.28 23V3ZM48.7582 37.7587C46.2545 37.354 43.6961 37.1449 41.0985 37.1449V57.1449C42.6213 57.1449 44.1125 57.2673 45.5665 57.5024L48.7582 37.7587ZM41.0985 37.1449C12.0578 37.1449 -10 62.5939 -10 92.0725H10C10 71.9254 24.7431 57.1449 41.0985 57.1449V37.1449ZM-10 92.0725C-10 121.551 12.0578 147 41.0985 147V127C24.7431 127 10 112.22 10 92.0725H-10ZM41.0985 147L100.28 147L100.28 127L41.0985 127L41.0985 147ZM100.28 147L164.298 147L164.298 127L100.28 127L100.28 147ZM164.394 127C164.367 127 164.339 127 164.312 127L164.284 147C164.32 147 164.357 147 164.394 147V127ZM164.476 127C164.448 127 164.421 127 164.394 127V147C164.431 147 164.468 147 164.504 147L164.476 127Z" fill="white" mask="url(#path-22-inside-1_15_2)"/>
<defs>
<linearGradient id="paint0_linear_15_2" x1="196" y1="162" x2="365" y2="427.5" gradientUnits="userSpaceOnUse">
<stop stop-color="#A1D1F5"/>
<stop offset="1" stop-color="#5E7A8F"/>
</linearGradient>
<linearGradient id="paint1_linear_15_2" x1="108.5" y1="13" x2="248.935" y2="165.996" gradientUnits="userSpaceOnUse">
<stop stop-color="#E4F4F5"/>
<stop offset="1" stop-color="#57DDE6"/>
</linearGradient>
</defs>
</svg>
