<svg width="629" height="574" viewBox="0 0 629 574" fill="none" xmlns="http://www.w3.org/2000/svg">
<rect x="-0.5" y="0.5" width="147.041" height="12.6234" transform="matrix(-1 0 0 1 566.586 512.24)" fill="white" stroke="white"/>
<rect x="-0.5" y="0.5" width="147.041" height="12.6234" transform="matrix(-1 0 0 1 565.678 272.468)" fill="white" stroke="white"/>
<rect x="-0.704416" y="-0.0616284" width="147.041" height="12.6234" transform="matrix(-0.642788 -0.766044 -0.766044 0.642788 428.767 516.547)" fill="white" stroke="white"/>
<rect x="-0.5" y="0.5" width="147.041" height="12.6234" transform="matrix(-1 0 0 1 565.678 46.3196)" fill="white" stroke="white"/>
<rect x="0.0493253" y="0.705384" width="147.041" height="12.6234" transform="matrix(-0.656059 0.754709 0.754709 0.656059 418.186 46.525)" fill="white" stroke="white"/>
<circle cx="53.1313" cy="53.1313" r="49.6313" transform="matrix(-1 0 0 1 627.529 0)" fill="url(#paint0_linear_15_2)" stroke="white" stroke-width="7"/>
<path d="M524.766 277.009C524.766 304.141 546.959 326.187 574.398 326.187C601.837 326.187 624.029 304.141 624.029 277.009C624.029 249.878 601.837 227.832 574.398 227.832C546.959 227.832 524.766 249.878 524.766 277.009Z" fill="url(#paint1_linear_15_2)" stroke="white" stroke-width="7"/>
<circle cx="53.1313" cy="53.1313" r="49.6313" transform="matrix(-1 0 0 1 628.437 465.921)" fill="url(#paint2_linear_15_2)" stroke="white" stroke-width="7"/>
<rect x="62.2595" y="514.557" width="147.041" height="12.6234" fill="white" stroke="white"/>
<rect x="61.3513" y="274.785" width="147.041" height="12.6234" fill="white" stroke="white"/>
<rect x="200.079" y="518.863" width="147.041" height="12.6234" transform="rotate(-50 200.079 518.863)" fill="white" stroke="white"/>
<rect x="61.3513" y="48.6361" width="147.041" height="12.6234" fill="white" stroke="white"/>
<rect x="208.843" y="48.8415" width="147.041" height="12.6234" transform="rotate(49 208.843 48.8415)" fill="white" stroke="white"/>
<mask id="path-14-inside-1_15_2" fill="white">
<path fill-rule="evenodd" clip-rule="evenodd" d="M312.507 503.158C412.792 503.078 494.076 344.399 494.076 148.67C494.076 144.697 494.042 140.738 493.976 136.796C425.086 136.623 362.29 104.135 314.845 50.8607H313.799C266.308 104.278 203.408 136.797 134.418 136.797C133.238 136.797 132.061 136.788 130.885 136.769C130.821 140.594 130.787 144.435 130.785 148.29V149.05C130.89 344.604 212.134 503.078 312.354 503.158C312.38 503.158 312.405 503.158 312.43 503.158C312.456 503.158 312.481 503.158 312.507 503.158Z"/>
</mask>
<path fill-rule="evenodd" clip-rule="evenodd" d="M312.507 503.158C412.792 503.078 494.076 344.399 494.076 148.67C494.076 144.697 494.042 140.738 493.976 136.796C425.086 136.623 362.29 104.135 314.845 50.8607H313.799C266.308 104.278 203.408 136.797 134.418 136.797C133.238 136.797 132.061 136.788 130.885 136.769C130.821 140.594 130.787 144.435 130.785 148.29V149.05C130.89 344.604 212.134 503.078 312.354 503.158C312.38 503.158 312.405 503.158 312.43 503.158C312.456 503.158 312.481 503.158 312.507 503.158Z" fill="url(#paint3_linear_15_2)"/>
<path d="M312.507 503.158L312.507 516.158L312.517 516.158L312.507 503.158ZM493.976 136.796L506.974 136.577L506.759 123.829L494.009 123.797L493.976 136.796ZM314.845 50.8607L324.553 42.2149L320.675 37.8607H314.845V50.8607ZM313.799 50.8607V37.8607H307.962L304.084 42.223L313.799 50.8607ZM130.885 136.769L131.095 123.77L118.107 123.561L117.887 136.549L130.885 136.769ZM130.785 148.29L117.785 148.283V148.29H130.785ZM130.785 149.05H117.785L117.785 149.057L130.785 149.05ZM312.354 503.158L312.344 516.158H312.354V503.158ZM481.076 148.67C481.076 244.909 461.065 331.396 429.328 393.356C397.238 456.005 355.234 490.124 312.496 490.158L312.517 516.158C370.064 516.112 418.845 470.852 452.469 405.209C486.445 338.877 507.076 248.16 507.076 148.67H481.076ZM480.978 137.016C481.043 140.885 481.076 144.77 481.076 148.67H507.076C507.076 144.624 507.042 140.592 506.974 136.577L480.978 137.016ZM494.009 123.797C429.408 123.634 369.962 93.2034 324.553 42.2149L305.136 59.5066C354.617 115.067 420.764 149.612 493.943 149.796L494.009 123.797ZM314.845 37.8607H313.799V63.8607H314.845V37.8607ZM304.084 42.223C258.631 93.3472 199.096 123.797 134.418 123.797V149.797C207.719 149.797 273.984 115.209 323.515 59.4984L304.084 42.223ZM134.418 123.797C133.308 123.797 132.201 123.788 131.095 123.77L130.676 149.767C131.921 149.787 133.169 149.797 134.418 149.797V123.797ZM143.785 148.297C143.787 144.513 143.82 140.743 143.883 136.988L117.887 136.549C117.821 140.445 117.787 144.357 117.785 148.283L143.785 148.297ZM117.785 148.29V149.05H143.785V148.29H117.785ZM312.365 490.158C269.654 490.124 227.678 456.05 195.594 393.475C163.863 331.588 143.837 245.196 143.785 149.043L117.785 149.057C117.838 248.458 138.486 339.079 172.458 405.338C206.078 470.909 254.834 516.112 312.344 516.158L312.365 490.158ZM312.43 490.158C312.422 490.158 312.413 490.158 312.4 490.158C312.388 490.158 312.371 490.158 312.354 490.158V516.158C312.362 516.158 312.371 516.158 312.384 516.158C312.397 516.158 312.413 516.158 312.43 516.158V490.158ZM312.507 490.158C312.489 490.158 312.473 490.158 312.461 490.158C312.447 490.158 312.439 490.158 312.43 490.158V516.158C312.448 516.158 312.464 516.158 312.476 516.158C312.49 516.158 312.498 516.158 312.507 516.158V490.158Z" fill="white" mask="url(#path-14-inside-1_15_2)"/>
<path d="M269.696 257C269.696 257 273.366 180 315.93 180C358.495 180 360.696 257 360.696 257" stroke="black" stroke-width="18"/>
<circle cx="53.1313" cy="54.9477" r="49.6313" fill="url(#paint4_linear_15_2)" stroke="white" stroke-width="7"/>
<path d="M102.763 278.826C102.763 305.958 80.5703 328.003 53.1313 328.003C25.6923 328.003 3.5 305.958 3.5 278.826C3.5 251.694 25.6923 229.649 53.1313 229.649C80.5703 229.649 102.763 251.694 102.763 278.826Z" fill="url(#paint5_linear_15_2)" stroke="white" stroke-width="7"/>
<circle cx="54.0395" cy="520.869" r="49.6313" fill="url(#paint6_linear_15_2)" stroke="white" stroke-width="7"/>
<path fill-rule="evenodd" clip-rule="evenodd" d="M257 247.206C245.954 247.206 237 256.161 237 267.206V362.778C237 373.824 245.954 382.778 257 382.778H373.696C384.742 382.778 393.696 373.824 393.696 362.778V267.206C393.696 256.161 384.742 247.206 373.696 247.206H257ZM333 311.5C333 318.481 328.912 324.507 323 327.316V350H309V327.753C302.553 325.173 298 318.868 298 311.5C298 301.835 305.835 294 315.5 294C325.165 294 333 301.835 333 311.5Z" fill="black"/>
<defs>
<linearGradient id="paint0_linear_15_2" x1="35.0803" y1="8.5249e-07" x2="106.944" y2="98.7698" gradientUnits="userSpaceOnUse">
<stop stop-color="#D9D9D9"/>
<stop offset="1" stop-color="#292F83"/>
</linearGradient>
<linearGradient id="paint1_linear_15_2" x1="592.449" y1="224.332" x2="521.39" y2="322.838" gradientUnits="userSpaceOnUse">
<stop stop-color="#D9D9D9"/>
<stop offset="1" stop-color="#292F83"/>
</linearGradient>
<linearGradient id="paint2_linear_15_2" x1="35.0803" y1="8.5249e-07" x2="106.944" y2="98.7698" gradientUnits="userSpaceOnUse">
<stop stop-color="#D9D9D9"/>
<stop offset="1" stop-color="#292F83"/>
</linearGradient>
<linearGradient id="paint3_linear_15_2" x1="312.43" y1="50.8607" x2="312.43" y2="503.158" gradientUnits="userSpaceOnUse">
<stop stop-color="#D9D9D9"/>
<stop offset="1" stop-color="#737373"/>
</linearGradient>
<linearGradient id="paint4_linear_15_2" x1="35.0803" y1="1.81641" x2="106.944" y2="100.586" gradientUnits="userSpaceOnUse">
<stop stop-color="#D9D9D9"/>
<stop offset="1" stop-color="#292F83"/>
</linearGradient>
<linearGradient id="paint5_linear_15_2" x1="35.0803" y1="226.149" x2="106.139" y2="324.655" gradientUnits="userSpaceOnUse">
<stop stop-color="#D9D9D9"/>
<stop offset="1" stop-color="#292F83"/>
</linearGradient>
<linearGradient id="paint6_linear_15_2" x1="35.9885" y1="467.737" x2="107.852" y2="566.507" gradientUnits="userSpaceOnUse">
<stop stop-color="#D9D9D9"/>
<stop offset="1" stop-color="#292F83"/>
</linearGradient>
</defs>
</svg>
