<svg width="588" height="604" viewBox="0 0 588 604" fill="none" xmlns="http://www.w3.org/2000/svg">
<path d="M467.779 58.684C467.779 65.6422 462.086 72.8444 450.304 79.8044C438.655 86.685 421.666 92.9507 400.497 98.2394C358.19 108.809 299.639 115.368 234.89 115.368C170.141 115.368 111.589 108.809 69.2824 98.2394C48.1137 92.9507 31.1247 86.685 19.476 79.8044C7.69302 72.8444 2 65.6422 2 58.684C2 51.7257 7.69302 44.5235 19.476 37.5635C31.1247 30.6829 48.1137 24.4172 69.2824 19.1285C111.589 8.55878 170.141 2 234.89 2C299.639 2 358.19 8.55878 400.497 19.1285C421.666 24.4172 438.655 30.6829 450.304 37.5635C462.086 44.5235 467.779 51.7257 467.779 58.684Z" fill="#3F698A" stroke="white" stroke-width="4"/>
<mask id="path-2-inside-1_15_2" fill="white">
<path fill-rule="evenodd" clip-rule="evenodd" d="M469.779 78.9198C469.779 111.33 364.616 137.604 234.89 137.604C105.164 137.604 0 111.33 0 78.9198C0 78.6947 0.00507404 78.4699 0.0151951 78.2454H0V78.9198V174.028H0.0151984C0.00507513 174.253 0 174.478 0 174.703C0 207.113 105.164 233.387 234.89 233.387C364.616 233.387 469.779 207.113 469.779 174.703C469.779 174.478 469.774 174.253 469.764 174.028H469.779V78.9198ZM469.779 78.9198C469.779 78.6947 469.774 78.4699 469.764 78.2454H469.779V78.9198Z"/>
</mask>
<path fill-rule="evenodd" clip-rule="evenodd" d="M469.779 78.9198C469.779 111.33 364.616 137.604 234.89 137.604C105.164 137.604 0 111.33 0 78.9198C0 78.6947 0.00507404 78.4699 0.0151951 78.2454H0V78.9198V174.028H0.0151984C0.00507513 174.253 0 174.478 0 174.703C0 207.113 105.164 233.387 234.89 233.387C364.616 233.387 469.779 207.113 469.779 174.703C469.779 174.478 469.774 174.253 469.764 174.028H469.779V78.9198ZM469.779 78.9198C469.779 78.6947 469.774 78.4699 469.764 78.2454H469.779V78.9198Z" fill="#5DAEE4"/>
<path d="M0.0151951 78.2454L4.01114 78.4255L4.19957 74.2454H0.0151951V78.2454ZM0 78.2454V74.2454H-4V78.2454H0ZM0 174.028H-4V178.028H0V174.028ZM0.0151984 174.028L4.01114 174.208L4.19959 170.028H0.0151984V174.028ZM469.764 174.028V170.028H465.58L465.768 174.209L469.764 174.028ZM469.779 174.028V178.028H473.779V174.028H469.779ZM469.764 78.2454V74.2454H465.58L465.768 78.4257L469.764 78.2454ZM469.779 78.2454H473.779V74.2454H469.779V78.2454ZM234.89 141.604C299.981 141.604 359.045 135.016 401.951 124.296C423.374 118.944 440.994 112.508 453.355 105.206C465.447 98.0637 473.779 89.311 473.779 78.9198H465.779C465.779 84.7338 460.966 91.4192 449.286 98.3182C437.875 105.059 421.096 111.267 400.012 116.535C357.906 127.055 299.524 133.604 234.89 133.604V141.604ZM-4 78.9198C-4 89.311 4.33216 98.0637 16.4245 105.206C28.7853 112.508 46.4054 118.944 67.8281 124.296C110.735 135.016 169.798 141.604 234.89 141.604V133.604C170.255 133.604 111.874 127.055 69.7672 116.535C48.6831 111.267 31.9044 105.059 20.4931 98.3182C8.8133 91.4192 4 84.7338 4 78.9198H-4ZM-3.98075 78.0652C-3.99357 78.3497 -4 78.6346 -4 78.9198H4C4 78.7548 4.00372 78.5901 4.01114 78.4255L-3.98075 78.0652ZM0 82.2454H0.0151951V74.2454H0V82.2454ZM4 78.9198V78.2454H-4V78.9198H4ZM4 174.028V78.9198H-4V174.028H4ZM0 178.028H0.0151984V170.028H0V178.028ZM-3.98074 173.848C-3.99357 174.133 -4 174.418 -4 174.703H4C4 174.538 4.00372 174.373 4.01114 174.208L-3.98074 173.848ZM-4 174.703C-4 185.094 4.33216 193.847 16.4245 200.989C28.7853 208.291 46.4054 214.727 67.8281 220.079C110.735 230.799 169.798 237.387 234.89 237.387V229.387C170.255 229.387 111.874 222.838 69.7672 212.318C48.6831 207.05 31.9044 200.842 20.4931 194.101C8.8133 187.202 4 180.517 4 174.703H-4ZM234.89 237.387C299.981 237.387 359.045 230.799 401.951 220.079C423.374 214.727 440.994 208.291 453.355 200.989C465.447 193.847 473.779 185.094 473.779 174.703H465.779C465.779 180.517 460.966 187.202 449.286 194.101C437.875 200.842 421.096 207.05 400.012 212.318C357.906 222.838 299.524 229.387 234.89 229.387V237.387ZM473.779 174.703C473.779 174.418 473.773 174.133 473.76 173.848L465.768 174.209C465.776 174.373 465.779 174.538 465.779 174.703H473.779ZM469.764 178.028H469.779V170.028H469.764V178.028ZM465.779 78.9198V174.028H473.779V78.9198H465.779ZM473.779 78.9198C473.779 78.6347 473.773 78.3497 473.76 78.065L465.768 78.4257C465.776 78.59 465.779 78.7547 465.779 78.9198H473.779ZM469.764 82.2454H469.779V74.2454H469.764V82.2454ZM465.779 78.2454V78.9198H473.779V78.2454H465.779Z" fill="white" mask="url(#path-2-inside-1_15_2)"/>
<mask id="path-4-inside-2_15_2" fill="white">
<path fill-rule="evenodd" clip-rule="evenodd" d="M469.779 192.241C469.779 224.651 364.616 250.925 234.89 250.925C105.164 250.925 0 224.651 0 192.241C0 192.015 0.00507473 191.791 0.0151972 191.566H0V192.241V287.349H0.0152004C0.00507582 287.574 0 287.798 0 288.024C0 320.434 105.164 346.708 234.89 346.708C364.616 346.708 469.779 320.434 469.779 288.024C469.779 287.798 469.774 287.574 469.764 287.349H469.779V192.241ZM469.779 192.241C469.779 192.015 469.774 191.791 469.764 191.566H469.779V192.241Z"/>
</mask>
<path fill-rule="evenodd" clip-rule="evenodd" d="M469.779 192.241C469.779 224.651 364.616 250.925 234.89 250.925C105.164 250.925 0 224.651 0 192.241C0 192.015 0.00507473 191.791 0.0151972 191.566H0V192.241V287.349H0.0152004C0.00507582 287.574 0 287.798 0 288.024C0 320.434 105.164 346.708 234.89 346.708C364.616 346.708 469.779 320.434 469.779 288.024C469.779 287.798 469.774 287.574 469.764 287.349H469.779V192.241ZM469.779 192.241C469.779 192.015 469.774 191.791 469.764 191.566H469.779V192.241Z" fill="#3F698A"/>
<path d="M0.0151972 191.566L4.01114 191.746L4.19958 187.566H0.0151972V191.566ZM0 191.566V187.566H-4V191.566H0ZM0 287.349H-4V291.349H0V287.349ZM0.0152004 287.349L4.01114 287.529L4.19961 283.349H0.0152004V287.349ZM469.764 287.349V283.349H465.58L465.768 287.529L469.764 287.349ZM469.779 287.349V291.349H473.779V287.349H469.779ZM469.764 191.566V187.566H465.58L465.768 191.746L469.764 191.566ZM469.779 191.566H473.779V187.566H469.779V191.566ZM234.89 254.925C299.981 254.925 359.045 248.337 401.951 237.617C423.374 232.265 440.994 225.828 453.355 218.527C465.447 211.384 473.779 202.632 473.779 192.241H465.779C465.779 198.055 460.966 204.74 449.286 211.639C437.875 218.379 421.096 224.588 400.012 229.856C357.906 240.375 299.524 246.925 234.89 246.925V254.925ZM-4 192.241C-4 202.632 4.33216 211.384 16.4245 218.527C28.7853 225.828 46.4054 232.265 67.8281 237.617C110.735 248.337 169.798 254.925 234.89 254.925V246.925C170.255 246.925 111.874 240.375 69.7672 229.856C48.6831 224.588 31.9044 218.379 20.4931 211.639C8.8133 204.74 4 198.055 4 192.241H-4ZM-3.98074 191.386C-3.99357 191.67 -4 191.955 -4 192.241H4C4 192.076 4.00372 191.911 4.01114 191.746L-3.98074 191.386ZM0 195.566H0.0151972V187.566H0V195.566ZM4 192.241V191.566H-4V192.241H4ZM4 287.349V192.241H-4V287.349H4ZM0 291.349H0.0152004V283.349H0V291.349ZM-3.98074 287.169C-3.99357 287.453 -4 287.738 -4 288.024H4C4 287.859 4.00372 287.694 4.01114 287.529L-3.98074 287.169ZM-4 288.024C-4 298.415 4.33216 307.167 16.4245 314.31C28.7853 321.611 46.4054 328.048 67.8281 333.4C110.735 344.12 169.798 350.708 234.89 350.708V342.708C170.255 342.708 111.874 336.158 69.7672 325.639C48.6831 320.371 31.9044 314.162 20.4931 307.422C8.8133 300.523 4 293.838 4 288.024H-4ZM234.89 350.708C299.981 350.708 359.045 344.12 401.951 333.4C423.374 328.048 440.994 321.611 453.355 314.31C465.447 307.167 473.779 298.415 473.779 288.024H465.779C465.779 293.838 460.966 300.523 449.286 307.422C437.875 314.162 421.096 320.371 400.012 325.639C357.906 336.158 299.524 342.708 234.89 342.708V350.708ZM473.779 288.024C473.779 287.738 473.773 287.453 473.76 287.169L465.768 287.529C465.776 287.694 465.779 287.858 465.779 288.024H473.779ZM469.764 291.349H469.779V283.349H469.764V291.349ZM465.779 192.241V287.349H473.779V192.241H465.779ZM473.779 192.241C473.779 191.955 473.773 191.67 473.76 191.386L465.768 191.746C465.776 191.911 465.779 192.075 465.779 192.241H473.779ZM469.764 195.566H469.779V187.566H469.764V195.566ZM465.779 191.566V192.241H473.779V191.566H465.779Z" fill="white" mask="url(#path-4-inside-2_15_2)"/>
<mask id="path-6-inside-3_15_2" fill="white">
<path fill-rule="evenodd" clip-rule="evenodd" d="M469.779 304.212C469.779 336.623 364.616 362.896 234.89 362.896C105.164 362.896 0 336.623 0 304.212C0 303.987 0.00507496 303.762 0.0151979 303.538H0V304.212V399.321H0.0151984C0.00507513 399.545 0 399.77 0 399.995C0 432.406 105.164 458.679 234.89 458.679C364.616 458.679 469.779 432.406 469.779 399.995C469.779 399.77 469.774 399.545 469.764 399.321H469.779V304.212ZM469.779 304.212C469.779 303.987 469.774 303.762 469.764 303.538H469.779V304.212Z"/>
</mask>
<path fill-rule="evenodd" clip-rule="evenodd" d="M469.779 304.212C469.779 336.623 364.616 362.896 234.89 362.896C105.164 362.896 0 336.623 0 304.212C0 303.987 0.00507496 303.762 0.0151979 303.538H0V304.212V399.321H0.0151984C0.00507513 399.545 0 399.77 0 399.995C0 432.406 105.164 458.679 234.89 458.679C364.616 458.679 469.779 432.406 469.779 399.995C469.779 399.77 469.774 399.545 469.764 399.321H469.779V304.212ZM469.779 304.212C469.779 303.987 469.774 303.762 469.764 303.538H469.779V304.212Z" fill="#5DAEE4"/>
<path d="M0.0151979 303.538L4.01114 303.718L4.19959 299.538H0.0151979V303.538ZM0 303.538V299.538H-4V303.538H0ZM0 399.321H-4V403.321H0V399.321ZM0.0151984 399.321L4.01114 399.501L4.19959 395.321H0.0151984V399.321ZM469.764 399.321V395.321H465.58L465.768 399.501L469.764 399.321ZM469.779 399.321V403.321H473.779V399.321H469.779ZM469.764 303.538V299.538H465.58L465.768 303.718L469.764 303.538ZM469.779 303.538H473.779V299.538H469.779V303.538ZM234.89 366.896C299.981 366.896 359.045 360.309 401.951 349.589C423.374 344.237 440.994 337.8 453.355 330.499C465.447 323.356 473.779 314.603 473.779 304.212H465.779C465.779 310.026 460.966 316.712 449.286 323.611C437.875 330.351 421.096 336.56 400.012 341.827C357.906 352.347 299.524 358.896 234.89 358.896V366.896ZM-4 304.212C-4 314.603 4.33216 323.356 16.4245 330.499C28.7853 337.8 46.4054 344.237 67.8281 349.589C110.735 360.309 169.798 366.896 234.89 366.896V358.896C170.255 358.896 111.874 352.347 69.7672 341.827C48.6831 336.56 31.9044 330.351 20.4931 323.611C8.8133 316.712 4 310.026 4 304.212H-4ZM-3.98074 303.358C-3.99357 303.642 -4 303.927 -4 304.212H4C4 304.047 4.00372 303.882 4.01114 303.718L-3.98074 303.358ZM0 307.538H0.0151979V299.538H0V307.538ZM4 304.212V303.538H-4V304.212H4ZM4 399.321V304.212H-4V399.321H4ZM0 403.321H0.0151984V395.321H0V403.321ZM-3.98074 399.141C-3.99357 399.425 -4 399.71 -4 399.995H4C4 399.83 4.00372 399.665 4.01114 399.501L-3.98074 399.141ZM-4 399.995C-4 410.386 4.33216 419.139 16.4245 426.282C28.7853 433.583 46.4054 440.02 67.8281 445.372C110.735 456.092 169.798 462.679 234.89 462.679V454.679C170.255 454.679 111.874 448.13 69.7672 437.61C48.6831 432.343 31.9044 426.134 20.4931 419.394C8.8133 412.495 4 405.809 4 399.995H-4ZM234.89 462.679C299.981 462.679 359.045 456.092 401.951 445.372C423.374 440.02 440.994 433.583 453.355 426.282C465.447 419.139 473.779 410.386 473.779 399.995H465.779C465.779 405.809 460.966 412.495 449.286 419.394C437.875 426.134 421.096 432.343 400.012 437.61C357.906 448.13 299.524 454.679 234.89 454.679V462.679ZM473.779 399.995C473.779 399.71 473.773 399.425 473.76 399.14L465.768 399.501C465.776 399.665 465.779 399.83 465.779 399.995H473.779ZM469.764 403.321H469.779V395.321H469.764V403.321ZM465.779 304.212V399.321H473.779V304.212H465.779ZM473.779 304.212C473.779 303.927 473.773 303.642 473.76 303.357L465.768 303.718C465.776 303.882 465.779 304.047 465.779 304.212H473.779ZM469.764 307.538H469.779V299.538H469.764V307.538ZM465.779 303.538V304.212H473.779V303.538H465.779Z" fill="white" mask="url(#path-6-inside-3_15_2)"/>
<mask id="path-8-inside-4_15_2" fill="white">
<path fill-rule="evenodd" clip-rule="evenodd" d="M469.779 417.533C469.779 449.943 364.616 476.217 234.89 476.217C105.164 476.217 0 449.943 0 417.533C0 417.308 0.00507387 417.083 0.0151946 416.859H0V417.533V512.642H0.0151951C0.00507404 512.866 0 513.091 0 513.316C0 545.726 105.164 572 234.89 572C364.616 572 469.779 545.726 469.779 513.316C469.779 513.091 469.774 512.866 469.764 512.642H469.779V417.533ZM469.779 417.533C469.779 417.308 469.774 417.083 469.764 416.859H469.779V417.533Z"/>
</mask>
<path fill-rule="evenodd" clip-rule="evenodd" d="M469.779 417.533C469.779 449.943 364.616 476.217 234.89 476.217C105.164 476.217 0 449.943 0 417.533C0 417.308 0.00507387 417.083 0.0151946 416.859H0V417.533V512.642H0.0151951C0.00507404 512.866 0 513.091 0 513.316C0 545.726 105.164 572 234.89 572C364.616 572 469.779 545.726 469.779 513.316C469.779 513.091 469.774 512.866 469.764 512.642H469.779V417.533ZM469.779 417.533C469.779 417.308 469.774 417.083 469.764 416.859H469.779V417.533Z" fill="#3F698A"/>
<path d="M0.0151946 416.859L4.01114 417.039L4.19956 412.859H0.0151946V416.859ZM0 416.859V412.859H-4V416.859H0ZM0 512.642H-4V516.642H0V512.642ZM0.0151951 512.642L4.01114 512.822L4.19957 508.642H0.0151951V512.642ZM469.764 512.642V508.642H465.58L465.768 512.822L469.764 512.642ZM469.779 512.642V516.642H473.779V512.642H469.779ZM469.764 416.859V412.859H465.58L465.768 417.039L469.764 416.859ZM469.779 416.859H473.779V412.859H469.779V416.859ZM234.89 480.217C299.981 480.217 359.045 473.629 401.951 462.91C423.374 457.557 440.994 451.121 453.355 443.819C465.447 436.677 473.779 427.924 473.779 417.533H465.779C465.779 423.347 460.966 430.032 449.286 436.931C437.875 443.672 421.096 449.881 400.012 455.148C357.906 465.668 299.524 472.217 234.89 472.217V480.217ZM-4 417.533C-4 427.924 4.33216 436.677 16.4245 443.819C28.7853 451.121 46.4054 457.557 67.8281 462.91C110.735 473.629 169.798 480.217 234.89 480.217V472.217C170.255 472.217 111.874 465.668 69.7672 455.148C48.6831 449.881 31.9044 443.672 20.4931 436.931C8.8133 430.032 4 423.347 4 417.533H-4ZM-3.98075 416.678C-3.99357 416.963 -4 417.248 -4 417.533H4C4 417.368 4.00372 417.203 4.01114 417.039L-3.98075 416.678ZM0 420.859H0.0151946V412.859H0V420.859ZM4 417.533V416.859H-4V417.533H4ZM4 512.642V417.533H-4V512.642H4ZM0 516.642H0.0151951V508.642H0V516.642ZM-3.98075 512.461C-3.99357 512.746 -4 513.031 -4 513.316H4C4 513.151 4.00372 512.986 4.01114 512.822L-3.98075 512.461ZM-4 513.316C-4 523.707 4.33216 532.46 16.4245 539.603C28.7853 546.904 46.4054 553.34 67.8281 558.693C110.735 569.412 169.798 576 234.89 576V568C170.255 568 111.874 561.451 69.7672 550.931C48.6831 545.664 31.9044 539.455 20.4931 532.714C8.8133 525.815 4 519.13 4 513.316H-4ZM234.89 576C299.981 576 359.045 569.412 401.951 558.693C423.374 553.34 440.994 546.904 453.355 539.603C465.447 532.46 473.779 523.707 473.779 513.316H465.779C465.779 519.13 460.966 525.815 449.286 532.714C437.875 539.455 421.096 545.664 400.012 550.931C357.906 561.451 299.524 568 234.89 568V576ZM473.779 513.316C473.779 513.031 473.773 512.746 473.76 512.461L465.768 512.822C465.776 512.986 465.779 513.151 465.779 513.316H473.779ZM469.764 516.642H469.779V508.642H469.764V516.642ZM465.779 417.533V512.642H473.779V417.533H465.779ZM473.779 417.533C473.779 417.248 473.773 416.963 473.76 416.678L465.768 417.039C465.776 417.203 465.779 417.368 465.779 417.533H473.779ZM469.764 420.859H469.779V412.859H469.764V420.859ZM465.779 416.859V417.533H473.779V416.859H465.779Z" fill="white" mask="url(#path-8-inside-4_15_2)"/>
<path d="M61.828 174.703C61.828 183.419 55.8416 190.066 48.9352 190.066C42.0288 190.066 36.0425 183.419 36.0425 174.703C36.0425 165.986 42.0288 159.34 48.9352 159.34C55.8416 159.34 61.828 165.986 61.828 174.703Z" fill="#E53737" fill-opacity="0.62" stroke="black" stroke-width="3"/>
<path d="M61.828 290.722C61.828 299.438 55.8416 306.085 48.9352 306.085C42.0288 306.085 36.0425 299.438 36.0425 290.722C36.0425 282.005 42.0288 275.359 48.9352 275.359C55.8416 275.359 61.828 282.005 61.828 290.722Z" fill="#819BEF" stroke="black" stroke-width="3"/>
<path d="M61.828 404.042C61.828 412.759 55.8416 419.406 48.9352 419.406C42.0288 419.406 36.0425 412.759 36.0425 404.042C36.0425 395.326 42.0288 388.679 48.9352 388.679C55.8416 388.679 61.828 395.326 61.828 404.042Z" fill="#E53737" fill-opacity="0.62" stroke="black" stroke-width="3"/>
<path d="M61.828 520.061C61.828 528.778 55.8416 535.425 48.9352 535.425C42.0288 535.425 36.0425 528.778 36.0425 520.061C36.0425 511.345 42.0288 504.698 48.9352 504.698C55.8416 504.698 61.828 511.345 61.828 520.061Z" fill="#819BEF" stroke="black" stroke-width="3"/>
<rect x="190" y="206" width="396" height="396" fill="url(#paint0_linear_15_2)" stroke="white" stroke-width="4"/>
<rect x="223" y="488" width="94" height="94" fill="#5DAEE4" stroke="black" stroke-width="6"/>
<rect x="341" y="395" width="94" height="187" fill="#5DAEE4" stroke="black" stroke-width="6"/>
<rect x="459" y="448" width="94" height="134" fill="#5DAEE4" stroke="black" stroke-width="6"/>
<circle cx="270" cy="445" r="26" fill="#3F698A"/>
<circle cx="388" cy="321" r="26" fill="#3F698A"/>
<circle cx="506" cy="398" r="26" fill="#3F698A"/>
<line x1="265.291" y1="449.519" x2="383.291" y2="325.519" stroke="#3F698A" stroke-width="13"/>
<line x1="391.616" y1="324.599" x2="506.616" y2="401.599" stroke="#3F698A" stroke-width="13"/>
<defs>
<linearGradient id="paint0_linear_15_2" x1="308.5" y1="321.5" x2="588" y2="604" gradientUnits="userSpaceOnUse">
<stop stop-color="#E8F4F6"/>
<stop offset="1" stop-color="#1BCBD4"/>
</linearGradient>
</defs>
</svg>
