<svg width="711" height="568" viewBox="0 0 711 568" fill="none" xmlns="http://www.w3.org/2000/svg">
<rect x="3" y="3" width="705" height="562" rx="37" fill="url(#paint0_linear_15_2)" stroke="white" stroke-width="6"/>
<g filter="url(#filter0_b_15_2)">
<rect width="711" height="568" rx="43" fill="url(#paint1_linear_15_2)"/>
<rect x="4" y="4" width="703" height="560" rx="39" stroke="white" stroke-width="8"/>
</g>
<circle cx="46.5" cy="50.5" r="14.5" fill="#FF5F57"/>
<circle cx="46.5" cy="50.5" r="14.5" stroke="white"/>
<circle cx="131.5" cy="50.5" r="14.5" fill="#28CA42"/>
<circle cx="131.5" cy="50.5" r="14.5" stroke="white"/>
<circle cx="89.5" cy="50.5" r="14.5" fill="#FEBD2F"/>
<circle cx="89.5" cy="50.5" r="14.5" stroke="white"/>
<path d="M272.455 374.5H511.925C512.072 374.5 512.147 374.523 512.172 374.532C512.199 374.541 512.216 374.552 512.233 374.565C512.275 374.599 512.358 374.694 512.406 374.863C512.454 375.032 512.434 375.156 512.416 375.207C512.409 375.228 512.399 375.246 512.382 375.268C512.365 375.289 512.314 375.348 512.189 375.425L368.555 464.425C368.476 464.474 368.385 464.5 368.292 464.5H99.7421C99.5792 464.5 99.5 464.474 99.4773 464.466C99.4528 464.457 99.4388 464.448 99.4246 464.436C99.3876 464.405 99.3013 464.304 99.2562 464.118C99.2111 463.932 99.2416 463.803 99.2602 463.758C99.2673 463.741 99.2756 463.726 99.2933 463.707C99.3097 463.689 99.3683 463.63 99.5131 463.556L272.226 374.556C272.297 374.519 272.375 374.5 272.455 374.5Z" fill="#27CF3A" stroke="black" stroke-width="11"/>
<path d="M272.455 311.5H511.925C512.072 311.5 512.147 311.523 512.172 311.532C512.199 311.541 512.216 311.552 512.233 311.565C512.275 311.599 512.358 311.694 512.406 311.863C512.454 312.032 512.434 312.156 512.416 312.207C512.409 312.228 512.399 312.246 512.382 312.268C512.365 312.289 512.314 312.348 512.189 312.425L368.555 401.425C368.476 401.474 368.385 401.5 368.292 401.5H99.7421C99.5792 401.5 99.5 401.474 99.4773 401.466C99.4528 401.457 99.4388 401.448 99.4246 401.436C99.3876 401.405 99.3013 401.304 99.2562 401.118C99.2111 400.932 99.2416 400.803 99.2602 400.758C99.2673 400.741 99.2756 400.726 99.2933 400.707C99.3097 400.689 99.3683 400.63 99.5131 400.556L272.226 311.556C272.297 311.519 272.375 311.5 272.455 311.5Z" fill="#27CF3A" stroke="black" stroke-width="11"/>
<mask id="path-9-inside-1_15_2" fill="white">
<rect x="93" y="396" width="277" height="74" rx="6"/>
</mask>
<rect x="93" y="396" width="277" height="74" rx="6" fill="#27CF3A" stroke="black" stroke-width="20" mask="url(#path-9-inside-1_15_2)"/>
<path d="M369.979 400.512L511.411 314.081C512.061 313.683 512.9 314.13 512.932 314.892L515.358 372.721C515.373 373.08 515.194 373.42 514.889 373.611L371.03 463.523C370.364 463.939 369.5 463.46 369.5 462.675V401.365C369.5 401.017 369.681 400.693 369.979 400.512Z" fill="#27CF3A" stroke="black" stroke-width="10"/>
<path d="M272.455 290.5H511.925C512.072 290.5 512.147 290.523 512.172 290.532C512.199 290.541 512.216 290.552 512.233 290.565C512.275 290.599 512.358 290.694 512.406 290.863C512.454 291.032 512.434 291.156 512.416 291.207C512.409 291.228 512.399 291.246 512.382 291.268C512.365 291.289 512.314 291.348 512.189 291.425L368.555 380.425C368.476 380.474 368.385 380.5 368.292 380.5H99.7421C99.5792 380.5 99.5 380.474 99.4773 380.466C99.4528 380.457 99.4388 380.448 99.4246 380.436C99.3876 380.405 99.3013 380.304 99.2562 380.118C99.2111 379.932 99.2416 379.803 99.2602 379.758C99.2673 379.741 99.2756 379.726 99.2933 379.707C99.3097 379.689 99.3683 379.63 99.5131 379.556L272.226 290.556C272.297 290.519 272.375 290.5 272.455 290.5Z" fill="#C2EB75" stroke="black" stroke-width="11"/>
<path d="M272.455 227.5H511.925C512.072 227.5 512.147 227.523 512.172 227.532C512.199 227.541 512.216 227.552 512.233 227.565C512.275 227.599 512.358 227.694 512.406 227.863C512.454 228.032 512.434 228.156 512.416 228.207C512.409 228.228 512.399 228.246 512.382 228.268C512.365 228.289 512.314 228.348 512.189 228.425L368.555 317.425C368.476 317.474 368.385 317.5 368.292 317.5H99.7421C99.5792 317.5 99.5 317.474 99.4773 317.466C99.4528 317.457 99.4388 317.448 99.4246 317.436C99.3876 317.405 99.3013 317.304 99.2562 317.118C99.2111 316.932 99.2416 316.803 99.2602 316.758C99.2673 316.741 99.2756 316.726 99.2933 316.707C99.3097 316.689 99.3683 316.63 99.5131 316.556L272.226 227.556C272.297 227.519 272.375 227.5 272.455 227.5Z" fill="#C2EB75" stroke="black" stroke-width="11"/>
<mask id="path-13-inside-2_15_2" fill="white">
<rect x="93" y="312" width="277" height="74" rx="6"/>
</mask>
<rect x="93" y="312" width="277" height="74" rx="6" fill="#C2EB75" stroke="black" stroke-width="20" mask="url(#path-13-inside-2_15_2)"/>
<path d="M369.979 316.512L511.411 230.081C512.061 229.683 512.9 230.13 512.932 230.892L515.358 288.721C515.373 289.08 515.194 289.42 514.889 289.611L371.03 379.523C370.364 379.939 369.5 379.46 369.5 378.675V317.365C369.5 317.017 369.681 316.693 369.979 316.512Z" fill="#C2EB75" stroke="black" stroke-width="10"/>
<path d="M272.455 206H511.925C512.072 206 512.147 206.023 512.172 206.032C512.199 206.041 512.216 206.052 512.233 206.065C512.275 206.099 512.358 206.194 512.406 206.363C512.454 206.532 512.434 206.656 512.416 206.707C512.409 206.728 512.399 206.746 512.382 206.768C512.365 206.789 512.314 206.848 512.189 206.925L368.555 295.925C368.476 295.974 368.385 296 368.292 296H99.7421C99.5792 296 99.5 295.974 99.4773 295.966C99.4528 295.957 99.4388 295.948 99.4246 295.936C99.3876 295.905 99.3013 295.804 99.2562 295.618C99.2111 295.432 99.2416 295.303 99.2602 295.258C99.2673 295.241 99.2756 295.226 99.2933 295.207C99.3097 295.189 99.3683 295.13 99.5131 295.056L272.226 206.056C272.297 206.019 272.375 206 272.455 206Z" fill="#F26363" stroke="black" stroke-width="11"/>
<path d="M272.455 143H511.925C512.072 143 512.147 143.023 512.172 143.032C512.199 143.041 512.216 143.052 512.233 143.065C512.275 143.099 512.358 143.194 512.406 143.363C512.454 143.532 512.434 143.656 512.416 143.707C512.409 143.728 512.399 143.746 512.382 143.768C512.365 143.789 512.314 143.848 512.189 143.925L368.555 232.925C368.476 232.974 368.385 233 368.292 233H99.7421C99.5792 233 99.5 232.974 99.4773 232.966C99.4528 232.957 99.4388 232.948 99.4246 232.936C99.3876 232.905 99.3013 232.804 99.2562 232.618C99.2111 232.432 99.2416 232.303 99.2602 232.258C99.2673 232.241 99.2756 232.226 99.2933 232.207C99.3097 232.189 99.3683 232.13 99.5131 232.056L272.226 143.056C272.297 143.019 272.375 143 272.455 143Z" fill="#F26363" stroke="black" stroke-width="11"/>
<mask id="path-17-inside-3_15_2" fill="white">
<rect x="93" y="227.5" width="277" height="74" rx="6"/>
</mask>
<rect x="93" y="227.5" width="277" height="74" rx="6" fill="#F26363" stroke="black" stroke-width="20" mask="url(#path-17-inside-3_15_2)"/>
<path d="M369.979 232.012L511.411 145.581C512.061 145.183 512.9 145.63 512.932 146.392L515.358 204.221C515.373 204.58 515.194 204.92 514.889 205.111L371.03 295.023C370.364 295.439 369.5 294.96 369.5 294.175V232.865C369.5 232.517 369.681 232.193 369.979 232.012Z" fill="#F26363" stroke="black" stroke-width="10"/>
<path d="M414.55 346.54L415.426 349.905C418.06 360.016 422.17 369.487 427.534 378.156L429.421 381.207L426.868 383.727L416.235 394.222L416.232 394.226C414.218 396.209 413.126 398.827 413.126 401.623C413.126 404.406 414.225 407.032 416.234 409.015C416.234 409.016 416.235 409.016 416.235 409.017L433.951 426.447L433.955 426.45C437.952 430.391 445.179 430.38 449.147 426.459L449.154 426.452L449.162 426.445L460.244 415.597L462.678 413.214L465.632 414.91C474.363 419.922 483.7 423.772 493.982 426.248L497.429 427.078V430.623V446.211C497.429 452.002 502.131 456.773 508.028 456.773H533.081C538.939 456.773 543.577 452.042 543.577 446.211V430.629V427.082L547.025 426.253C557.305 423.783 566.702 419.926 575.441 414.91L578.396 413.214L580.83 415.598L591.906 426.446L591.912 426.452L591.918 426.458C595.901 430.389 603.138 430.396 607.152 426.458C607.153 426.457 607.154 426.456 607.155 426.455L624.86 409.025L624.863 409.022C626.847 407.072 627.977 404.365 627.977 401.635C627.977 398.843 626.891 396.234 624.875 394.253L624.869 394.248L624.864 394.242L614.231 383.723L611.686 381.204L613.568 378.158C618.928 369.487 623.044 360.015 625.67 349.908L626.546 346.54H630.026H644.822C650.817 346.54 655.5 341.827 655.5 336.145V311.49C655.5 305.838 650.873 301.221 644.822 301.221H630.026H626.546L625.67 297.853C623.041 287.737 618.93 278.206 613.579 269.541L611.701 266.498L614.241 263.981L624.874 253.443L624.88 253.437L624.887 253.43C626.901 251.45 627.996 248.824 627.996 246.025C627.996 243.229 626.898 240.6 624.884 238.616C624.884 238.616 624.884 238.616 624.884 238.616L607.166 221.172C607.165 221.172 607.165 221.172 607.165 221.171C605.137 219.179 602.456 218.082 599.566 218.082C596.678 218.082 593.987 219.184 591.956 221.176L591.948 221.184L580.824 232.038L578.39 234.412L575.441 232.72C566.703 227.704 557.305 223.852 547.021 221.369L543.577 220.537V216.994V201.43C543.577 195.65 538.99 191 533.081 191H508.028C502.079 191 497.429 195.691 497.429 201.43V217V220.546L493.982 221.375C483.7 223.851 474.363 227.701 465.619 232.72L462.66 234.418L460.226 232.027L449.199 221.197L449.191 221.189C447.168 219.193 444.485 218.094 441.58 218.094C438.683 218.094 435.99 219.198 433.97 221.182L414.55 346.54ZM414.55 346.54H411.071H396.282C390.247 346.54 385.496 341.785 385.5 336.148V336.145V311.49C385.5 305.883 390.203 301.221 396.294 301.221H411.09H414.567L415.444 297.856C418.079 287.75 422.192 278.212 427.543 269.54L429.415 266.505L426.889 263.989L416.268 253.41L416.263 253.404L416.257 253.398C414.235 251.398 413.14 248.788 413.138 246.009C413.148 243.206 414.241 240.59 416.247 238.619L416.248 238.617L433.968 221.184L414.55 346.54ZM413.092 256.598L423.713 267.177C418.13 276.226 413.839 286.178 411.09 296.721H396.294C387.9 296.721 381 303.218 381 311.49L413.092 256.598ZM413.092 256.598C410.228 253.765 408.638 250.005 408.638 246.001C408.65 242.002 410.222 238.231 413.092 235.409V256.598ZM467.928 323.814V323.815C467.928 352.337 491.61 375.234 520.561 375.234C549.507 375.234 573.175 352.335 573.175 323.815C573.175 295.315 549.51 272.384 520.561 272.384C491.607 272.384 467.935 295.307 467.928 323.814Z" fill="url(#paint2_linear_15_2)" stroke="black" stroke-width="9"/>
<defs>
<filter id="filter0_b_15_2" x="-7.6" y="-7.6" width="726.2" height="583.2" filterUnits="userSpaceOnUse" color-interpolation-filters="sRGB">
<feFlood flood-opacity="0" result="BackgroundImageFix"/>
<feGaussianBlur in="BackgroundImageFix" stdDeviation="3.8"/>
<feComposite in2="SourceAlpha" operator="in" result="effect1_backgroundBlur_15_2"/>
<feBlend mode="normal" in="SourceGraphic" in2="effect1_backgroundBlur_15_2" result="shape"/>
</filter>
<linearGradient id="paint0_linear_15_2" x1="166" y1="251.5" x2="391.144" y2="540.203" gradientUnits="userSpaceOnUse">
<stop stop-color="#FFF5F5"/>
<stop offset="0.4599" stop-color="#E9D7D7"/>
<stop offset="1" stop-color="#949292"/>
</linearGradient>
<linearGradient id="paint1_linear_15_2" x1="355.5" y1="0" x2="355.5" y2="568" gradientUnits="userSpaceOnUse">
<stop stop-color="white" stop-opacity="0.38"/>
<stop offset="1" stop-color="white" stop-opacity="0.26"/>
</linearGradient>
<linearGradient id="paint2_linear_15_2" x1="381" y1="323.886" x2="660" y2="323.886" gradientUnits="userSpaceOnUse">
<stop stop-color="white"/>
<stop offset="1" stop-color="#999999"/>
</linearGradient>
</defs>
</svg>
