<svg width="1510" height="380" viewBox="0 0 1510 380" fill="none" xmlns="http://www.w3.org/2000/svg">
<path d="M19.8738 205C16.7282 205.333 8.54951 206.8 1 210V385H730V306L717.417 302.5L709.553 294.5L690.68 290L664.728 281L648.214 275L633.272 272.5L622.262 266L604.175 252L593.165 256L579.796 252L560.136 243L547.553 238L540.476 234L531.039 228.5L527.893 232L523.175 225.5L510.592 217.5L505.087 225.5L500.369 232L498.01 228.5L494.078 225.25L495.65 218.5L485.427 217.5L476.777 207.5L464.194 205L453.971 201H442.961L430.379 205V200L428.019 194.5L420.942 189L412.291 184.5L402.854 181L392.631 182H383.981L377.689 184.5L371.398 190.5L365.107 184.5H361.175V186.5L353.311 184.5L345.447 177.5L339.155 175L333.65 177.5L328.932 172.5L320.282 167.5L312.417 164.5V161L308.485 157L301.408 155L293.544 148.5L287.252 143.5L279.388 141L273.097 143.5H267.592L264.447 145.5L256.583 148.5H247.146L227.485 152L222.767 155H218.049H210.971H196.816V157H190.524L185.806 155L182.66 157H178.728H170.864H164.573V161L154.35 164.5L145.699 161H137.835L132.33 167.5H128.398L124.466 170L118.961 172.5H112.67L108.738 175L100.874 184.5L96.9417 188H89.8641L85.1456 190.5H78.8544L73.3495 193.5L60.767 197H49.7573L41.8932 201V205H37.1748H26.165H19.8738Z" fill="black" stroke="black"/>
<path d="M656.005 318.5H648V385H1509V50L1506 48L1501 45.5L1499.99 47H1493.99L1491.49 45.5L1487.99 50L1486.49 51.5L1484.99 50L1482.98 53L1478.98 50H1475.98L1474.48 51.5L1472.48 53L1470.98 54H1468.98L1466.98 53L1463.47 50H1459.47L1455.47 48L1451.47 47L1444.96 44L1440.46 42.5H1437.46L1435.96 40.5L1434.46 40L1431.96 40.5V41.5H1429.45H1426.95L1425.95 40H1423.45H1420.45L1417.95 38L1415.45 37.5L1413.44 35.5L1410.44 35L1407.44 33.5L1404.94 32L1402.44 31L1399.44 30H1396.43L1393.43 28L1391.43 27L1388.43 25.5L1384.43 25L1382.43 24.5L1380.43 23.5L1378.92 22.5L1374.42 21L1367.92 18.5L1364.92 17.5L1363.42 16L1359.91 15.5L1356.91 13H1353.41L1349.41 11.5L1344.9 10L1337.4 8.5V6.5H1333.4L1327.89 3.5H1321.89L1317.39 2.5H1308.88H1306.38L1303.88 1H1300.38L1298.38 3.5L1296.88 8.5H1294.38L1290.87 10L1287.37 13H1283.37V14.5L1280.87 17L1279.37 18.5L1278.37 20H1272.86L1270.36 22L1265.36 27L1262.36 31L1260.86 32.5L1259.35 34.5L1256.35 36L1252.35 39L1248.85 40.5L1244.85 44L1244.35 46L1240.34 46.5L1235.84 50.5L1231.34 53L1228.34 54.5L1226.84 56L1223.33 58H1220.83L1216.83 60.5L1213.83 62L1210.83 63L1206.32 68L1200.32 66.5L1196.32 64L1193.82 59H1188.81H1185.81H1181.31L1177.31 61.5V64H1172.8H1170.3L1167.3 66.5V70.5L1165.3 73H1159.3H1155.29L1152.29 74.5L1148.29 76L1145.79 73H1140.29L1136.28 74.5L1131.78 76H1127.78L1124.78 74.5L1122.28 79L1118.77 81L1115.77 82.5H1112.77H1108.27L1103.76 86L1100.76 89L1098.26 91.5H1092.26L1084.75 93L1080.25 94.5L1076.75 98V102L1072.75 104L1069.74 107L1065.24 109L1059.74 114.5L1055.74 117L1051.73 112.5H1047.73H1044.73L1041.82 117L1040.73 119L1037.73 120.5L1035.73 126L1032.72 128.5V126L1029.72 120.5L1027.22 119L1025.22 117L1021.22 114.5L1018.21 117L1016.21 120.5L1013.71 123.5L1009.21 126L1005.71 128.5L1000.2 134L995.702 135.5L992.7 138.5L987.697 137L982.194 138.5H977.691L973.189 142.5H968.686L966.685 146L963.183 151L961.682 155H959.681H953.677L949.675 158.5L945.673 162.5L942.671 169L941.17 172.5L938.168 178L936.668 184L930.664 186L925.161 190.5L919.157 192L911.653 194.5L906.15 197V194.5H903.148V200H901.147V197H898.145V202H894.643H890.641L889.14 207.5L886.138 205.5L884.137 204.5L882.136 205.5L881.135 209H877.633V204.5L875.632 206.5V209V211.5H873.131L869.128 214L867.127 219.5H865.626H862.625H859.123L856.621 222.5L854.12 226H849.617L847.116 229L845.114 232L840.112 234H838.11L834.608 236V241.5H828.605L824.603 245.5L822.601 248L818.599 250V252H815.597V248L813.596 249L812.596 252V253.5L807.593 255L803.59 258L799.088 261.5L795.586 264L794.085 266V267.5L791.583 270L786.58 270.5V273.5H783.078L780.577 270L779.076 273.5L777.575 279L775.074 281L772.072 282.5L770.071 279L766.569 281V285L764.568 288L761.566 285V288L759.064 290L755.062 294L749.559 290L752.561 294L749.559 296.5H747.058V294L745.056 296.5V300L740.554 301.5L737.552 303.5H733.049V300L729.047 301.5V307.5L727.046 309.5L720.542 312L714.539 315.5H712.037H709.536L704.533 318.5H700.531H694.527H687.023H674.515L670.513 320.5H661.508L656.005 318.5Z" fill="black"/>
<path d="M786.58 267.5V270.5M786.58 270.5V273.5H783.078L780.577 270L779.076 273.5L777.575 279L775.074 281L772.072 282.5L770.071 279L766.569 281V285L764.568 288L761.566 285V288L759.064 290L755.062 294L749.559 290L752.561 294L749.559 296.5H747.058V294L745.056 296.5V300L740.554 301.5L737.552 303.5H733.049V300L729.047 301.5V307.5L727.046 309.5L720.542 312L714.539 315.5H712.037H709.536L704.533 318.5H700.531H694.527H687.023H674.515L670.513 320.5H661.508L656.005 318.5H648V385H1509V50L1506 48L1501 45.5L1499.99 47H1493.99L1491.49 45.5L1487.99 50L1486.49 51.5L1484.99 50L1482.98 53L1478.98 50H1475.98L1474.48 51.5L1472.48 53L1470.98 54H1468.98L1466.98 53L1463.47 50H1459.47L1455.47 48L1451.47 47L1444.96 44L1440.46 42.5H1437.46L1435.96 40.5L1434.46 40L1431.96 40.5V41.5H1429.45H1426.95L1425.95 40H1423.45H1420.45L1417.95 38L1415.45 37.5L1413.44 35.5L1410.44 35L1407.44 33.5L1404.94 32L1402.44 31L1399.44 30H1396.43L1393.43 28L1391.43 27L1388.43 25.5L1384.43 25L1382.43 24.5L1380.43 23.5L1378.92 22.5L1374.42 21L1367.92 18.5L1364.92 17.5L1363.42 16L1359.91 15.5L1356.91 13H1353.41L1349.41 11.5L1344.9 10L1337.4 8.5V6.5H1333.4L1327.89 3.5H1321.89L1317.39 2.5H1308.88H1306.38L1303.88 1H1300.38L1298.38 3.5L1296.88 8.5H1294.38L1290.87 10L1287.37 13H1283.37V14.5L1280.87 17L1279.37 18.5L1278.37 20H1272.86L1270.36 22L1265.36 27L1262.36 31L1260.86 32.5L1259.35 34.5L1256.35 36L1252.35 39L1248.85 40.5L1244.85 44L1244.35 46L1240.34 46.5L1235.84 50.5L1231.34 53L1228.34 54.5L1226.84 56L1223.33 58H1220.83L1216.83 60.5L1213.83 62L1210.83 63L1206.32 68L1200.32 66.5L1196.32 64L1193.82 59H1188.81H1185.81H1181.31L1177.31 61.5V64H1172.8H1170.3L1167.3 66.5V70.5L1165.3 73H1159.3H1155.29L1152.29 74.5L1148.29 76L1145.79 73H1140.29L1136.28 74.5L1131.78 76H1127.78L1124.78 74.5L1122.28 79L1118.77 81L1115.77 82.5H1112.77H1108.27L1103.76 86L1100.76 89L1098.26 91.5H1092.26L1084.75 93L1080.25 94.5L1076.75 98V102L1072.75 104L1069.74 107L1065.24 109L1059.74 114.5L1055.74 117L1051.73 112.5H1047.73H1044.73L1041.82 117L1040.73 119L1037.73 120.5L1035.73 126L1032.72 128.5V126L1029.72 120.5L1027.22 119L1025.22 117L1021.22 114.5L1018.21 117L1016.21 120.5L1013.71 123.5L1009.21 126L1005.71 128.5L1000.2 134L995.702 135.5L992.7 138.5L987.697 137L982.194 138.5H977.691L973.189 142.5H968.686L966.685 146L963.183 151L961.682 155H959.681H953.677L949.675 158.5L945.673 162.5L942.671 169L941.17 172.5L938.168 178L936.668 184L930.664 186L925.161 190.5L919.157 192L911.653 194.5L906.15 197V194.5H903.148V200H901.147V197H898.145V202H894.643H890.641L889.14 207.5L886.138 205.5L884.137 204.5L882.136 205.5L881.135 209H877.633V204.5L875.632 206.5V209V211.5H873.131L869.128 214L867.127 219.5H865.626H862.625H859.123L856.621 222.5L854.12 226H849.617L847.116 229L845.114 232L840.112 234H838.11L834.608 236V241.5H828.605L824.603 245.5L822.601 248L818.599 250V252H815.597V248L813.596 249L812.596 252V253.5L807.593 255L803.59 258L799.088 261.5L795.586 264L794.085 266V267.5L791.583 270L786.58 270.5Z" stroke="black"/>
</svg>
